<?xml version="1.0" encoding="utf-8"?>
<!-- Generator: Adobe Illustrator 16.0.0, SVG Export Plug-In . SVG Version: 6.00 Build 0)  -->
<!DOCTYPE svg PUBLIC "-//W3C//DTD SVG 1.1//EN" "http://www.w3.org/Graphics/SVG/1.1/DTD/svg11.dtd">
<svg version="1.1" id="レイヤー_1" xmlns="http://www.w3.org/2000/svg" xmlns:xlink="http://www.w3.org/1999/xlink" x="0px"
	 y="0px" width="1400px" height="1000px" viewBox="0 0 1400 1000" enable-background="new 0 0 1400 1000" xml:space="preserve">
<path fill="#FFC4C4" d="M746.992,605.088c0.37,0.359,0.49,0.862,0,1.472c-3.079,3.822-11.69,9.487-20.802,9.487
	c-8.374,0-15.028-2.215-19.703-8.13c-4.679-5.909-5.914-10.841-5.914-16.995c0-7.752,2.957-16.373,9.114-22.037
	c5.172-4.683,11.078-7.14,17.975-7.14c14.286,0,17.486,7.382,17.486,11.079c0,2.957-1.965,5.417-5.415,5.417
	c-4.189,0-6.153-2.95-7.389-6.16c-1.725-4.179-4.43-5.041-7.64-5.041c-4.924,0-11.078,5.534-11.078,14.275
	c0,7.392,0.25,12.443,4.802,19.953c3.33,5.411,8.741,6.648,12.684,6.648c6.156,0,9.977-2.097,13.293-4.685
	c0.25-0.239,0.743-0.239,1.115,0.133L746.992,605.088z"/>
<path fill="#FFC4C4" d="M795.629,569.768c5.563,5.562,8.166,11.725,8.166,18.716c0,6.62-2.845,13.021-7.337,17.985
	c-4.859,5.45-11.962,8.533-19.888,8.533c-7.462,0-13.851-2.132-19.188-8.533c-5.205-6.149-6.389-11.126-6.389-18.346
	c0-5.688,2.846-13.968,9.938-19.653c5.806-4.736,11.965-5.68,16.816-5.68C785.679,562.79,791.599,565.864,795.629,569.768
	 M789.353,588.123c0-13.024-6.862-20.602-12.308-20.602c-3.086,0-5.451,0.948-7.465,3.192c-3.672,4.145-5.089,9.121-5.089,17.77
	c0,6.859,0.469,11.364,3.674,16.456c2.006,3.188,4.616,5.086,9.349,5.086C785.324,610.025,789.353,600.194,789.353,588.123"/>
<path fill="#FFC4C4" d="M822.938,563.733c0.943-0.472,1.657-0.943,2.36-0.943c0.717,0,1.188,0.472,1.428,1.418l0.892,5.808
	c0.031,0.203,0.206,0.352,0.411,0.352c0.245,0,0.467-0.131,0.628-0.315c1.412-1.576,3.424-3.316,5.646-4.43
	c2.846-1.654,5.92-2.832,9.466-2.832c4.033,0,7.821,0.704,10.422,2.832c5.206,3.791,6.519,7.351,6.519,12.196v17.056
	c0,3.788-0.125,8.992-0.125,11.365c0,2.603,1.426,3.317,2.843,3.317h3.317c1.058,0,1.417,0.231,1.417,0.828v2.72
	c0,0.597-0.231,0.826-0.946,0.826c-0.942,0-4.502-0.354-12.782-0.354c-7.104,0-10.894,0.354-11.607,0.354s-0.945-0.472-0.945-1.417
	v-2.015c0-0.711,0.231-0.942,1.417-0.942h2.371c0.945,0,1.889-0.715,2.134-2.846c0.354-3.077,0.472-6.392,0.472-11.125v-13.622
	c0-4.731-0.242-7.809-3.077-10.18c-2.371-2.129-4.5-2.129-7.105-2.129c-1.899,0-4.731,0.472-7.576,3.072
	c-1.899,1.899-2.486,5.216-2.486,8.408v24.39c0,2.603,0.587,4.031,2.246,4.031h2.129c0.956,0,1.188,0.231,1.188,1.058v2.131
	c0,0.714-0.232,1.186-0.946,1.186s-4.03-0.354-11.136-0.354c-7.334,0-11.123,0.354-11.837,0.354c-0.474,0-0.706-0.472-0.706-1.186
	v-2.246c0-0.711,0.232-0.942,1.178-0.942h2.371c1.417,0,3.077-0.475,3.077-2.374v-26.634c0-3.559-2.132-5.447-4.966-6.875
	l-0.954-0.472c-0.706-0.229-0.945-0.706-0.945-1.178v-0.954c0-0.472,0.472-0.943,1.186-1.186L822.938,563.733z"/>
<path fill="#FFC4C4" d="M893.533,580.432c0,13.727-0.114,22.491,0.115,25.808c0.125,2.129,1.07,3.317,2.73,3.317h2.842
	c1.178,0,1.418,0.229,1.418,1.058v2.134c0,0.711-0.24,1.183-0.946,1.183c-0.711,0-4.502-0.356-12.55-0.356
	c-7.58,0-13.025,0.356-13.969,0.356c-0.717,0-0.956-0.231-0.956-0.943v-2.728c0-0.475,0.239-0.703,1.186-0.703h5.216
	c1.89,0,2.604-1.429,2.604-4.031l-0.123-34.757c-0.002-0.42-0.341-0.759-0.761-0.759h-6.936c-0.472,0-0.701-0.239-0.701-0.943
	l0.587-4.147c0.114-0.597,0.589-0.829,1.542-0.829h5.508c0.42,0,0.759-0.336,0.759-0.755v-1.259c0-13.022,4.388-20.599,9.833-25.805
	c6.151-5.688,13.729-8.293,21.073-8.293c8.051,0,13.499,3.788,13.499,8.522c0,3.788-3.317,6.631-6.865,6.631
	c-3.789,0-5.92-1.899-8.291-5.445c-1.659-2.132-3.316-3.789-5.688-3.789c-2.363,0-5.438,1.186-7.098,3.075
	c-4.5,5.447-4.028,14.452-4.028,24.749v1.613c0,0.419,0.339,0.755,0.756,0.755h15.469c4.021,0.118,7.809-0.122,11.365-0.825
	c2.131-0.245,3.788-0.6,4.734-0.6c0.703,0,1.186,0.6,0.943,1.543c-0.472,1.889-0.472,9.466-0.472,19.184v23.077
	c0.231,2.131,0.714,3.088,2.37,3.088h4.264c0.942,0,1.175,0.229,1.175,1.058v2.134c0,0.951-0.232,1.183-1.175,1.183
	c-0.954,0-5.214-0.356-12.08-0.356c-6.391,0-10.653,0.356-11.836,0.356c-0.475,0-0.946-0.231-0.946-0.943v-2.488
	c0-0.714,0.472-0.942,1.175-0.942h2.257c1.303,0,2.014-0.717,2.246-2.604c0.114-1.902,0.114-8.533,0.114-10.422v-19.069
	c0-4.731-0.472-7.452-6.389-7.452h-13.215c-0.417,0-0.756,0.339-0.756,0.759V580.432z"/>
<path fill="#FFC4C4" d="M939.864,598.662c-0.125-0.474,0-0.831,0.356-0.945l2.249-0.711c0.472-0.117,0.826-0.117,1.058,0.354
	l3.914,6.626c2.134,3.557,4.377,6.399,10.182,6.399c4.615,0,8.405-2.843,8.405-7.223c0-4.742-3.074-6.873-11.367-9.233
	c-8.049-2.371-14.44-6.402-14.44-14.808c0-5.205,1.89-9.466,6.037-12.428c4.143-2.846,7.46-3.903,12.309-3.903
	c5.805,0,9.354,1.418,11.482,2.603c1.785,0.946,2.139,1.418,2.257,2.132l1.133,5.961c0.42,2.194-1.19,5.907-2.712,4.273
	c-0.12-0.13-0.195-0.295-0.312-0.425l-5.57-6.264c-1.418-1.532-3.549-3.663-7.463-3.663c-4.377,0-8.166,2.603-8.166,6.748
	c0,4.852,3.549,6.276,10.654,8.166c5.445,1.417,8.763,2.843,11.84,6.159c2.61,2.603,3.557,5.448,3.557,9.469
	c0,9.95-8.052,17.055-19.773,17.055c-6.277,0-11.482-2.017-12.793-3.087c-0.475-0.472-0.82-0.829-0.946-1.303L939.864,598.662z"/>
<path fill="#FFC4C4" d="M995.182,587.298c0,12.076,8.637,19.174,15.385,19.174c7.348,0,11.838-3.077,14.326-6.866
	c0.474-0.828,0.945-0.828,1.417-0.589l1.782,1.063c0.591,0.356,0.831,0.828,0,2.371c-2.486,4.5-8.528,12.551-21.545,12.551
	c-7.577,0-12.91-1.657-17.053-6.402c-5.448-6.266-6.634-12.193-6.634-19.527c0-6.509,0.714-10.895,5.805-17.527
	c4.972-6.395,10.305-8.755,20.602-8.755c13.494,0,17.874,14.085,17.874,18.944c0,1.774-1.178,1.89-3.309,1.89h-27.895
	c-0.417,0-0.756,0.339-0.756,0.755V587.298z M1009.854,579.361c2.488,0,3.913-0.712,3.913-1.657c0-3.549-1.183-10.537-7.345-10.537
	c-5.623,0-9.127,3.997-10.742,11.462c-0.084,0.381,0.216,0.732,0.604,0.732H1009.854z"/>
<path fill="#FFC4C4" d="M1041.262,583.149c0-5.448-0.945-7.337-4.502-9.236l-1.469-0.815c-0.467-0.258-1.027-0.37-1.402-0.751
	c-0.146-0.148-0.203-0.328-0.203-0.562v-0.711c0-0.475,0.232-0.706,0.943-1.063l14.324-6.748c0.715-0.242,1.188-0.472,1.9-0.472
	c0.703,0,0.945,0.704,1.062,1.418l1.04,8.527c0.016,0.136,0.13,0.234,0.263,0.234c0.188,0,0.328-0.151,0.428-0.308
	c3.986-6.448,8.887-10.354,14.02-10.354c3.789,0,6.152,2.61,6.152,5.927c0,3.31-3.317,6.395-6.395,6.395
	c-1.656,0-3.071-0.475-4.027-0.956c-0.946-0.704-2.129-0.943-3.307-0.943c-1.428,0-3.56,0.943-4.977,3.429
	c-0.943,1.659-1.426,4.272-1.426,5.808v22.613c0,3.788,0.954,4.977,3.314,4.977h5.217c0.705,0,0.945,0.229,0.945,0.828v2.718
	c0,0.597-0.24,0.828-0.828,0.828c-0.829,0-6.035-0.354-14.683-0.354c-8.29,0-12.91,0.354-13.853,0.354
	c-0.59,0-0.829-0.231-0.829-0.828v-2.604c0-0.714,0.239-0.942,1.071-0.942h4.143c1.892,0,3.076-0.957,3.076-3.202V583.149z"/>
<path fill="#FFC4C4" d="M1084.615,579.833c0-3.546-0.706-5.92-6.151-7.337c-1.068-0.24-1.186-0.597-1.186-1.068v-1.303
	c0-0.472,0.231-0.712,0.828-0.943c1.657-0.714,13.38-4.859,15.386-5.69c1.186-0.472,2.131-0.701,2.845-0.701
	s1.071,0.472,0.946,1.418c-0.232,1.889-0.232,9.466-0.232,19.301v12.783c0,4.499,0,8.759,0.232,10.177
	c0.239,2.131,0.711,3.088,1.899,3.088h4.731c0.945,0,1.186,0.229,1.186,0.828v2.363c0,0.711-0.24,1.183-0.945,1.183
	c-0.954,0-6.389-0.356-14.323-0.356c-6.873,0-11.367,0.356-12.796,0.356c-0.586,0-0.942-0.231-0.942-1.183v-2.249
	c0-0.714,0.472-0.942,1.186-0.942h5.203c1.188,0,1.774-0.472,1.901-2.374c0.117-3.546,0.232-7.337,0.232-10.651V579.833z"/>
<path fill="#FFC4C4" d="M1090.285,550.826c-3.791,0-7.58-2.958-7.58-7.105c0-3.549,3.432-7.337,8.291-7.337
	c4.966,0,7.337,4.02,7.337,6.865C1098.333,546.806,1095.848,550.826,1090.285,550.826"/>
<path fill="#FFC4C4" d="M1122.291,587.298c0,12.076,8.634,19.174,15.383,19.174c7.348,0,11.839-3.077,14.327-6.866
	c0.472-0.828,0.943-0.828,1.417-0.589l1.782,1.063c0.589,0.356,0.829,0.828,0,2.371c-2.487,4.5-8.53,12.551-21.544,12.551
	c-7.577,0-12.91-1.657-17.054-6.402c-5.45-6.266-6.634-12.193-6.634-19.527c0-6.509,0.712-10.895,5.803-17.527
	c4.975-6.395,10.308-8.755,20.602-8.755c13.496,0,17.874,14.085,17.874,18.944c0,1.774-1.175,1.89-3.31,1.89h-27.895
	c-0.414,0-0.752,0.339-0.752,0.755V587.298z M1136.962,579.361c2.485,0,3.913-0.712,3.913-1.657c0-3.549-1.186-10.537-7.344-10.537
	c-5.626,0-9.128,3.997-10.746,11.462c-0.083,0.381,0.217,0.732,0.607,0.732H1136.962z"/>
<path fill="#FFC4C4" d="M724.231,463.845c0,5.921,0.242,23.205,0.359,24.989c0.114,1.657,1.297,2.602,2.718,2.602h4.502
	c0.472,0,0.943,0.232,0.943,0.589v3.2c0,0.472-0.232,0.944-0.704,0.944c-1.425,0-4.974-0.355-15.156-0.355
	c-10.188,0-13.976,0.355-15.153,0.355c-0.479,0-0.711-0.229-0.711-0.827v-3.192c0-0.482,0.231-0.714,0.711-0.714h4.263
	c2.132,0,3.074-0.944,3.189-2.247c0.125-0.953,0.359-22.5,0.359-37.182v-6.864c0-2.13-0.234-24.86-0.234-25.931
	c0-1.419-0.712-2.836-3.554-2.836h-3.549c-0.714,0-0.954-0.24-0.954-0.83v-3.198c0-0.473,0.24-0.715,0.954-0.715
	c1.414,0,4.977,0.357,15.153,0.357c9.236,0,13.024-0.357,14.682-0.357c0.704,0,0.946,0.243,0.946,0.83v2.958
	c0,0.715-0.242,0.955-0.946,0.955h-3.788c-2.374,0-3.557,0.705-3.557,3.434c0,1.889-0.474,20.359-0.474,26.049v4.447
	c0,0.418,0.338,0.757,0.755,0.757h1.379c1.414,0,2.6-0.471,4.027-1.66c2.246-1.889,22.848-27.589,24.148-29.364
	c1.659-2.36,0.242-3.789-1.89-3.789h-1.782c-0.474,0-0.588-0.229-0.588-0.83v-2.833c0-0.712,0.231-0.955,0.713-0.955
	c1.418,0,6.149,0.357,13.969,0.357c4.734,0,8.765-0.357,10.18-0.357c0.714,0,0.945,0.243,0.945,0.83v2.958
	c0,0.715-0.472,0.955-0.945,0.955h-2.371c-1.657,0-4.26,0.473-6.623,2.006c-5.398,3.557-21.229,21.782-26.306,28.297
	c-0.275,0.361-0.239,0.865,0.042,1.222c5.727,7.22,28.507,36.675,31.943,40.69c2.129,2.604,5.206,2.845,7.103,2.845h2.603
	c0.717,0,0.946,0.472,0.946,0.829v2.96c0,0.715-0.229,0.944-0.946,0.944c-1.186,0-5.445-0.355-16.339-0.355
	c-9.938,0-14.442,0.355-16.099,0.355c-0.472,0-0.715-0.229-0.715-0.944v-2.96c0-0.472,0.243-0.711,0.715-0.711h1.656
	c2.135,0,2.374-2.132,1.899-3.077c-1.183-2.371-20.369-29.835-22.259-31.736c-1.186-1.177-2.613-1.648-4.027-1.648h-1.379
	c-0.417,0-0.755,0.338-0.755,0.757V463.845z"/>
<path fill="#FFC4C4" d="M812.268,490.008c-0.192,0-0.354,0.126-0.484,0.265c-2.551,2.706-5.578,4.643-10.052,6.137
	c-2.718,0.83-5.203,0.83-7.577,0.83c-4.377,0-8.165-3.556-8.165-10.19c0-5.438,2.363-10.767,10.886-14.557
	c6.886-3.335,11.271-5.204,13.939-6.989c0.356-0.241,0.511-0.682,0.511-1.113v-5.395c-0.24-2.373-0.475-5.216-1.899-6.634
	c-1.186-1.301-3.317-1.774-5.92-1.774c-2.131,0-4.974,0.715-6.863,2.133c-1.659,1.184-0.474,2.958-0.474,5.802
	c0,4.261-2.132,6.866-7.103,6.866c-2.132,0-4.031-1.417-4.031-4.032c0-3.305,1.899-7.095,5.445-9.707
	c4.977-3.789,11.365-6.622,19.188-6.622c6.628,0,8.762,1.417,10.894,3.307c2.601,2.371,2.832,5.688,2.832,8.887l0.239,18.702v5.688
	c0,6.393,0.946,8.281,3.077,8.281c1.657,0,3.317-0.944,3.789-1.889c0.472-0.714,0.714-0.714,1.186-0.472l1.428,0.944
	c0.472,0.229,0.703,0.713,0.231,1.889c-1.188,2.128-4.021,6.873-10.894,6.873c-4.351,0-8.046-1.999-9.778-6.761
	C812.594,490.265,812.495,490.008,812.268,490.008 M811.325,470.29c0-0.3-0.24-0.604-0.498-0.448
	c-5.2,3.14-12.527,5.283-12.527,13.659c0,4.859,2.603,7.223,5.448,7.223c3.314-0.232,7.577-3.547,7.577-5.68V470.29z"/>
<path fill="#FFC4C4" d="M854.803,495.108l-16.225-41.673c-0.945-2.373-2.605-3.085-4.494-3.085h-2.014
	c-0.59,0-0.829-0.357-0.829-0.83v-2.604c0-0.712,0.239-0.944,0.943-0.944c1.428,0,3.788,0.358,12.311,0.358
	c5.688,0,8.533-0.358,10.193-0.358c0.7,0,0.942,0.232,0.942,0.944v2.604c0,0.598-0.242,0.83-0.942,0.83H853.5
	c-1.186,0-1.774,0.952-1.186,2.727l8.418,27.481c0.062,0.202,0.248,0.341,0.462,0.341s0.409-0.131,0.487-0.331l9.105-22.999
	c0.712-1.66,0.115-3.903-0.945-5.323c-0.714-0.945-1.899-1.185-3.088-1.185h-1.297c-0.592,0-0.832-0.241-0.832-0.83v-2.602
	c0-0.715,0.357-0.947,1.071-0.947c0.829,0,4.617,0.349,12.193,0.349c5.446,0,8.052-0.349,8.994-0.349
	c0.831,0,1.186,0.232,1.186,0.947v2.487c0,0.586-0.239,0.944-0.942,0.944h-1.9c-1.185,0-2.131,1.185-1.659,2.719l8.689,25.466
	c0.044,0.133,0.169,0.224,0.31,0.224c0.144,0,0.271-0.088,0.318-0.222l7.738-21.323c1.889-5.207,0.472-7.577-2.371-7.577h-1.657
	c-0.474,0-0.706-0.357-0.706-0.83v-2.604c0-0.712,0.347-0.944,0.946-0.944c0.703,0,4.26,0.358,9.937,0.358
	c5.217,0,7.348-0.358,8.533-0.358c0.704,0,0.943,0.358,0.943,0.83v2.602c0,0.59-0.239,0.947-0.828,0.947h-1.774
	c-1.897,0-3.789,0.712-4.5,2.014c-1.186,2.13-16.339,39.661-18.113,43.689c-0.592,1.303-1.543,1.535-2.491,1.535
	c-1.183,0-1.657-0.705-2.368-2.479l-11.717-31.762c-0.073-0.198-0.263-0.331-0.475-0.331c-0.213,0-0.406,0.127-0.489,0.325
	l-13.599,32.241c-0.716,1.533-1.659,2.006-2.845,2.006C856.103,497.588,855.389,496.643,854.803,495.108"/>
<path fill="#FFC4C4" d="M945.06,490.008c-0.19,0-0.352,0.126-0.481,0.265c-2.551,2.706-5.587,4.643-10.053,6.137
	c-2.725,0.83-5.213,0.83-7.576,0.83c-4.386,0-8.174-3.556-8.174-10.19c0-5.438,2.371-10.767,10.894-14.557
	c6.876-3.335,11.264-5.204,13.932-6.989c0.356-0.241,0.508-0.682,0.508-1.113v-5.395c-0.231-2.373-0.472-5.216-1.886-6.634
	c-1.188-1.301-3.317-1.774-5.923-1.774c-2.129,0-4.974,0.715-6.873,2.133c-1.66,1.184-0.472,2.958-0.472,5.802
	c0,4.261-2.131,6.866-7.105,6.866c-2.131,0-4.02-1.417-4.02-4.032c0-3.305,1.889-7.095,5.447-9.707
	c4.975-3.789,11.365-6.622,19.177-6.622c6.628,0,8.76,1.417,10.894,3.307c2.601,2.371,2.84,5.688,2.84,8.887l0.242,18.702v5.688
	c0,6.393,0.946,8.281,3.074,8.281c1.66,0,3.317-0.944,3.789-1.889c0.472-0.714,0.714-0.714,1.188-0.472l1.415,0.944
	c0.475,0.229,0.714,0.713,0.243,1.889c-1.186,2.128-4.031,6.873-10.895,6.873c-4.361,0-8.053-1.999-9.786-6.761
	C945.38,490.268,945.283,490.008,945.06,490.008 M944.108,470.29c0-0.3-0.239-0.604-0.495-0.448
	c-5.189,3.14-12.529,5.283-12.529,13.659c0,4.859,2.615,7.223,5.448,7.223c3.316-0.232,7.576-3.547,7.576-5.68V470.29z"/>
<path fill="#FFC4C4" d="M970.658,480.899c-0.114-0.473,0-0.83,0.36-0.944l2.245-0.713c0.48-0.117,0.826-0.117,1.068,0.354
	l3.903,6.626c2.134,3.557,4.388,6.4,10.183,6.4c4.617,0,8.405-2.844,8.405-7.223c0-4.742-3.075-6.873-11.368-9.234
	c-8.048-2.372-14.437-6.4-14.437-14.808c0-5.205,1.899-9.466,6.034-12.427c4.143-2.844,7.459-3.905,12.318-3.905
	c5.795,0,9.352,1.417,11.482,2.604c1.774,0.944,2.129,1.417,2.246,2.13l1.139,5.952c0.422,2.198-1.181,5.917-2.715,4.282
	c-0.12-0.129-0.198-0.294-0.315-0.427l-5.56-6.26c-1.428-1.533-3.56-3.662-7.463-3.662c-4.385,0-8.176,2.601-8.176,6.747
	c0,4.85,3.557,6.275,10.662,8.164c5.447,1.419,8.765,2.844,11.839,6.161c2.603,2.603,3.549,5.448,3.549,9.468
	c0,9.949-8.051,17.054-19.773,17.054c-6.276,0-11.479-2.017-12.782-3.087c-0.472-0.472-0.831-0.828-0.945-1.302L970.658,480.899z"/>
<path fill="#FFC4C4" d="M1041.366,490.008c-0.192,0-0.352,0.126-0.481,0.265c-2.551,2.706-5.586,4.643-10.053,6.137
	c-2.725,0.83-5.213,0.83-7.576,0.83c-4.385,0-8.174-3.556-8.174-10.19c0-5.438,2.371-10.767,10.894-14.557
	c6.876-3.335,11.264-5.204,13.932-6.989c0.357-0.241,0.511-0.682,0.511-1.113v-5.395c-0.234-2.373-0.475-5.216-1.892-6.634
	c-1.186-1.301-3.313-1.774-5.919-1.774c-2.129,0-4.972,0.715-6.874,2.133c-1.657,1.184-0.472,2.958-0.472,5.802
	c0,4.261-2.131,6.866-7.105,6.866c-2.131,0-4.02-1.417-4.02-4.032c0-3.305,1.889-7.095,5.448-9.707
	c4.974-3.789,11.364-6.622,19.174-6.622c6.631,0,8.762,1.417,10.894,3.307c2.603,2.371,2.842,5.688,2.842,8.887l0.242,18.702v5.688
	c0,6.393,0.946,8.281,3.075,8.281c1.659,0,3.316-0.944,3.788-1.889c0.472-0.714,0.714-0.714,1.188-0.472l1.415,0.944
	c0.474,0.229,0.713,0.713,0.242,1.889c-1.186,2.128-4.031,6.873-10.894,6.873c-4.362,0-8.054-1.999-9.786-6.761
	C1041.688,490.268,1041.591,490.008,1041.366,490.008 M1040.418,470.29c0-0.3-0.242-0.604-0.498-0.448
	c-5.189,3.14-12.529,5.283-12.529,13.659c0,4.859,2.616,7.223,5.448,7.223c3.316-0.232,7.579-3.547,7.579-5.68V470.29z"/>
<path fill="#FFC4C4" d="M1083.211,488.949c0,1.889,0.956,2.844,2.371,2.844h2.605c0.943,0,1.186,0.232,1.186,1.059v2.373
	c0,0.589-0.242,0.943-0.946,0.943c-0.714,0-4.731-0.354-11.365-0.354c-7.576,0-11.61,0.354-12.196,0.354
	c-0.597,0-0.828-0.472-0.828-1.185v-2.246c0-0.712,0.231-0.944,1.186-0.944h3.074c1.66,0,2.371-1.428,2.371-2.844
	c0.232-2.372,0.347-12.783,0.347-17.527l-0.229-42.736c0-4.501-0.357-6.872-6.276-8.521c-1.186-0.48-1.657-0.712-1.657-0.952v-1.66
	c0-0.472,0.472-0.945,1.657-1.176c3.316-0.713,13.254-4.501,14.913-4.973c1.657-0.715,2.846-1.188,3.557-1.188
	c0.946,0,1.063,0.473,0.946,1.892c-0.475,5.686-0.714,23.212-0.714,37.296v17.243c0,0.369,0.197,0.761,0.565,0.735
	c1.381-0.104,3.14-0.569,4.179-1.404c2.832-2.604,9.466-9.823,10.894-11.955c0.472-0.713,0.818-1.543,0.818-2.129
	c0-0.715-0.818-1.545-2.246-1.545h-1.061c-0.597,0-0.828-0.229-0.828-0.945v-2.487c0-0.472,0.231-0.944,0.946-0.944
	c0.711,0,4.971,0.358,11.836,0.358c6.506,0,9.352-0.358,10.297-0.358c0.597,0,0.829,0.473,0.829,1.303v2.128
	c0,0.715-0.232,0.945-0.943,0.945h-1.188c-1.656,0-4.734,0.598-7.334,2.017c-2.441,1.329-10.922,9.01-14.705,12.5
	c-0.316,0.29-0.607,0.737-0.321,1.059c4.224,4.763,20.086,22.372,22.843,24.21c1.889,1.187,4.734,1.66,6.151,1.66
	c0.714,0,0.943,0.232,0.943,1.059v2.373c0,0.714-0.229,0.943-1.178,0.943c-0.951,0-4.268-0.354-12.076-0.354
	c-6.866,0-11.84,0.354-12.783,0.354c-0.716,0-0.956-0.229-0.956-1.185v-2.006c0-0.713,0.24-0.953,0.956-0.953h0.943
	c0.946,0,1.417-0.705,1.186-1.66c-0.239-1.176-11.365-14.442-13.979-17.516c-0.883-0.891-2.034-1.249-2.957-1.372
	c-0.433-0.059-0.831,0.265-0.831,0.702V488.949z"/>
<path fill="#FFC4C4" d="M1134.057,462.071c0-3.547-0.703-5.919-6.148-7.337c-1.071-0.24-1.188-0.597-1.188-1.07v-1.301
	c0-0.473,0.232-0.712,0.831-0.944c1.657-0.713,13.379-4.859,15.386-5.689c1.186-0.472,2.129-0.701,2.845-0.701
	c0.712,0,1.068,0.472,0.943,1.416c-0.231,1.889-0.231,9.467-0.231,19.302v12.782c0,4.5,0,8.761,0.231,10.181
	c0.24,2.128,0.714,3.083,1.899,3.083h4.734c0.943,0,1.186,0.229,1.186,0.83v2.362c0,0.711-0.242,1.184-0.946,1.184
	c-0.956,0-6.398-0.358-14.324-0.358c-6.873,0-11.365,0.358-12.793,0.358c-0.586,0-0.943-0.232-0.943-1.184v-2.248
	c0-0.715,0.472-0.944,1.183-0.944h5.206c1.188,0,1.774-0.472,1.899-2.371c0.117-3.548,0.231-7.337,0.231-10.654V462.071z"/>
<path fill="#FFC4C4" d="M1139.727,433.064c-3.788,0-7.577-2.958-7.577-7.105c0-3.549,3.432-7.337,8.291-7.337
	c4.964,0,7.337,4.021,7.337,6.864C1147.777,429.042,1145.289,433.064,1139.727,433.064"/>
<polygon fill="#FFC4C4" points="682.58,261.662 602.878,261.662 602.878,181.959 548.089,181.959 548.089,261.662 468.382,261.662 
	468.382,316.45 548.089,316.45 548.089,396.154 602.878,396.154 602.878,316.45 682.58,316.45 "/>
<rect x="277.96" y="623.614" transform="matrix(0.7071 0.7071 -0.7071 0.7071 587.3035 -115.8536)" fill="#FFC4C4" width="311.077" height="54.785"/>
<rect x="182.64" y="718.933" transform="matrix(0.7071 0.7071 -0.7071 0.7071 626.7778 -20.5375)" fill="#FFC4C4" width="311.081" height="54.787"/>
<polygon fill="#FFC4C4" points="619.431,685.04 399.461,465.075 438.205,426.335 658.172,646.302 "/>
</svg>
